<svg width="70" height="70" viewBox="0 0 70 70" fill="none" xmlns="http://www.w3.org/2000/svg">
<path d="M56.3281 3.28125H13.6719C7.32923 3.28125 2.1875 8.42298 2.1875 14.7656V55.2344C2.1875 61.577 7.32923 66.7188 13.6719 66.7188H56.3281C62.6708 66.7188 67.8125 61.577 67.8125 55.2344V14.7656C67.8125 8.42298 62.6708 3.28125 56.3281 3.28125Z" fill="#111827"/>
<path d="M18 22C18 16.5 25.6 14 35 14C44.4 14 52 16.5 52 22V28C52 33.5 44.4 36 35 36C25.6 36 18 33.5 18 28V22Z" fill="#3B82F6"/>
<path d="M18 34C18 39.5 25.6 42 35 42C44.4 42 52 39.5 52 34V42C52 47.5 44.4 50 35 50C25.6 50 18 47.5 18 42V34Z" fill="#1D4ED8"/>
<ellipse cx="35" cy="22" rx="17" ry="4" fill="#60A5FA"/>
<ellipse cx="35" cy="34" rx="17" ry="4" fill="#3B82F6"/>
</svg>
