<svg width="70" height="70" viewBox="0 0 70 70" fill="none" xmlns="http://www.w3.org/2000/svg">
<path d="M56.3281 3.28125H13.6719C7.32923 3.28125 2.1875 8.42298 2.1875 14.7656V55.2344C2.1875 61.577 7.32923 66.7188 13.6719 66.7188H56.3281C62.6708 66.7188 67.8125 61.577 67.8125 55.2344V14.7656C67.8125 8.42298 62.6708 3.28125 56.3281 3.28125Z" fill="#1E1E24"/>
<path d="M35.5 13C26.4 13 24.8 14.2 24.8 19.5V23.7H35.8V25.3H20.3C15 25.3 13.5 28.3 13.5 35.6C13.5 43 15.9 44.2 21.2 44.2H24.8V39C24.8 31.6 27.9 28.5 35.5 28.5H46.2V19.5C46.2 14.2 44.6 13 35.5 13Z" fill="#3776AB"/>
<path d="M34.5 57C43.6 57 45.2 55.8 45.2 50.5V46.3H34.2V44.7H49.7C55 44.7 56.5 41.7 56.5 34.4C56.5 27 54.1 25.8 48.8 25.8H45.2V31C45.2 38.4 42.1 41.5 34.5 41.5H23.8V50.5C23.8 55.8 25.4 57 34.5 57Z" fill="#FFD343"/>
<circle cx="29" cy="18" r="1.5" fill="#FFFFFF"/>
<circle cx="41" cy="52" r="1.5" fill="#1E1E24"/>
</svg>
